<?xml version="1.0" encoding="UTF-8"?>
<svg width="3300px" height="2200px" viewBox="0 0 3300 2200" version="1.1" xmlns="http://www.w3.org/2000/svg" xmlns:xlink="http://www.w3.org/1999/xlink">
    <title>square.and.arrow.up</title>
    <g id="页面-1" stroke="none" stroke-width="1" fill="none" fill-rule="evenodd">
        <g id="square.and.arrow.up">
            <g id="Notes">
                <rect id="artboard" fill="#FFFFFF" fill-rule="nonzero" x="0" y="0" width="3300" height="2200"></rect>
                <line x1="263" y1="292" x2="3036" y2="292" id="路径" stroke="#000000" stroke-width="0.5"></line>
                <text id="Weight/Scale-Variations" fill="#000000" fill-rule="nonzero" font-family="Helvetica" font-size="13" font-weight="normal">
                    <tspan x="263" y="322">Weight/Scale Variations</tspan>
                </text>
                <text id="Ultralight" fill="#000000" fill-rule="nonzero" font-family="Helvetica" font-size="13" font-weight="normal">
                    <tspan x="533.711" y="322">Ultralight</tspan>
                </text>
                <text id="Thin" fill="#000000" fill-rule="nonzero" font-family="Helvetica" font-size="13" font-weight="normal">
                    <tspan x="843.422" y="322">Thin</tspan>
                </text>
                <text id="Light" fill="#000000" fill-rule="nonzero" font-family="Helvetica" font-size="13" font-weight="normal">
                    <tspan x="1138.63" y="322">Light</tspan>
                </text>
                <text id="Regular" fill="#000000" fill-rule="nonzero" font-family="Helvetica" font-size="13" font-weight="normal">
                    <tspan x="1426.84" y="322">Regular</tspan>
                </text>
                <text id="Medium" fill="#000000" fill-rule="nonzero" font-family="Helvetica" font-size="13" font-weight="normal">
                    <tspan x="1723.06" y="322">Medium</tspan>
                </text>
                <text id="Semibold" fill="#000000" fill-rule="nonzero" font-family="Helvetica" font-size="13" font-weight="normal">
                    <tspan x="2015.77" y="322">Semibold</tspan>
                </text>
                <text id="Bold" fill="#000000" fill-rule="nonzero" font-family="Helvetica" font-size="13" font-weight="normal">
                    <tspan x="2326.48" y="322">Bold</tspan>
                </text>
                <text id="Heavy" fill="#000000" fill-rule="nonzero" font-family="Helvetica" font-size="13" font-weight="normal">
                    <tspan x="2618.19" y="322">Heavy</tspan>
                </text>
                <text id="Black" fill="#000000" fill-rule="nonzero" font-family="Helvetica" font-size="13" font-weight="normal">
                    <tspan x="2917.4" y="322">Black</tspan>
                </text>
                <line x1="263" y1="1903" x2="3036" y2="1903" id="路径" stroke="#000000" stroke-width="0.5"></line>
                <g id="编组" transform="translate(264.3672, 1918.0684)" fill="#000000" fill-rule="nonzero">
                    <path d="M7.88088,15.76172 C12.18752,15.76172 15.7715,12.1875 15.7715,7.88086 C15.7715,3.57422 12.17774,0 7.8711,0 C3.57422,0 0,3.57422 0,7.88086 C0,12.1875 3.58398,15.76172 7.88086,15.76172 L7.88088,15.76172 Z M7.88088,14.277344 C4.33596,14.277344 1.50392,11.435544 1.50392,7.880864 C1.50392,4.326184 4.32618,1.484384 7.8711,1.484384 C11.42578,1.484384 14.27734,4.326184 14.27734,7.880864 C14.27734,11.435544 11.43554,14.277344 7.88086,14.277344 L7.88088,14.277344 Z M4.28712,7.880864 C4.28712,8.310552 4.589854,8.60352 5.039074,8.60352 L7.138674,8.60352 L7.138674,10.72266 C7.138674,11.162114 7.431642,11.464848 7.86133,11.464848 C8.310548,11.464848 8.603518,11.162114 8.603518,10.72266 L8.603518,8.60352 L10.722658,8.60352 C11.162112,8.60352 11.464846,8.310552 11.464846,7.880864 C11.464846,7.44141 11.162112,7.138676 10.722658,7.138676 L8.603518,7.138676 L8.603518,5.029296 C8.603518,4.580078 8.31055,4.277342 7.86133,4.277342 C7.431642,4.277342 7.138674,4.580076 7.138674,5.029296 L7.138674,7.138676 L5.039074,7.138676 C4.589856,7.138676 4.28712,7.44141 4.28712,7.880864 Z" id="形状"></path>
                </g>
                <g id="编组" transform="translate(283.254, 1915.9883)" fill="#000000" fill-rule="nonzero">
                    <path d="M9.96094,19.92188 C15.41016,19.92188 19.92188,15.4004 19.92188,9.96094 C19.92188,4.51172 15.4004,0 9.95118,0 C4.51172,0 0,4.51172 0,9.96094 C0,15.4004 4.52148,19.92188 9.96094,19.92188 Z M9.96094,18.261724 C5.35156,18.261724 1.66992,14.570324 1.66992,9.960944 C1.66992,5.351564 5.3418,1.660164 9.95116,1.660164 C14.56052,1.660164 18.2617,5.351564 18.2617,9.960944 C18.2617,14.570324 14.5703,18.261724 9.96092,18.261724 L9.96094,18.261724 Z M5.4297,9.960944 C5.4297,10.43946 5.761732,10.761726 6.259778,10.761726 L9.130878,10.761726 L9.130878,13.642586 C9.130878,14.130868 9.46291,14.472664 9.941424,14.472664 C10.4297,14.472664 10.771502,14.140632 10.771502,13.642586 L10.771502,10.761726 L13.652362,10.761726 C14.140644,10.761726 14.48244,10.43946 14.48244,9.960944 C14.48244,9.472662 14.140644,9.130866 13.652362,9.130866 L10.771502,9.130866 L10.771502,6.259766 C10.771502,5.76172 10.4297,5.419922 9.941424,5.419922 C9.462908,5.419922 9.130878,5.761718 9.130878,6.259766 L9.130878,9.130866 L6.259778,9.130866 C5.761732,9.130866 5.4297,9.472662 5.4297,9.960944 Z" id="形状"></path>
                </g>
                <g id="编组" transform="translate(307.1798, 1913.2246)" fill="#000000" fill-rule="nonzero">
                    <path d="M12.71486,25.43944 C19.67776,25.43944 25.43946,19.67772 25.43946,12.7246 C25.43946,5.7617 19.66798,0 12.70508,0 C5.75196,0 -1.42108547e-15,5.76172 -1.42108547e-15,12.7246 C-1.42108547e-15,19.67772 5.76172,25.43944 12.71484,25.43944 L12.71486,25.43944 Z M12.71486,23.623034 C6.6797,23.623034 1.82618,18.759754 1.82618,12.724594 C1.82618,6.679674 6.66994,1.826154 12.70508,1.826154 C18.75,1.826154 23.61328,6.679674 23.61328,12.724594 C23.61328,18.759754 18.75976,23.623034 12.71484,23.623034 L12.71486,23.623034 Z M6.94338,12.724594 C6.94338,13.242172 7.314474,13.6035 7.861348,13.6035 L11.806668,13.6035 L11.806668,17.55858 C11.806668,18.09569 12.177762,18.476548 12.69534,18.476548 C13.23245,18.476548 13.603544,18.105454 13.603544,17.55858 L13.603544,13.6035 L17.558624,13.6035 C18.095734,13.6035 18.476592,13.242172 18.476592,12.724594 C18.476592,12.177718 18.105498,11.806626 17.558624,11.806626 L13.603544,11.806626 L13.603544,7.861306 C13.603544,7.31443 13.23245,6.933572 12.69534,6.933572 C12.177762,6.933572 11.806668,7.314432 11.806668,7.861306 L11.806668,11.806626 L7.861348,11.806626 C7.314472,11.806626 6.94338,12.17772 6.94338,12.724594 Z" id="形状"></path>
                </g>
                <text id="Design-Variations" fill="#000000" fill-rule="nonzero" font-family="Helvetica" font-size="13" font-weight="normal">
                    <tspan x="263" y="1953">Design Variations</tspan>
                </text>
                <text id="Symbols-are-supported-in-up-to-nine-weights-and-three-scales." fill="#000000" fill-rule="nonzero" font-family="Helvetica" font-size="13" font-weight="normal">
                    <tspan x="263" y="1971">Symbols are supported in up to nine weights and three scales.</tspan>
                </text>
                <text id="For-optimal-layout-with-text-and-other-symbols,-vertically-align" fill="#000000" fill-rule="nonzero" font-family="Helvetica" font-size="13" font-weight="normal">
                    <tspan x="263" y="1989">For optimal layout with text and other symbols, vertically align</tspan>
                </text>
                <text id="symbols-with-the-adjacent-text." fill="#000000" fill-rule="nonzero" font-family="Helvetica" font-size="13" font-weight="normal">
                    <tspan x="263" y="2007">symbols with the adjacent text.</tspan>
                </text>
                <line x1="776" y1="1919" x2="776" y2="1933" id="路径" stroke="#00AEEF" stroke-width="0.5"></line>
                <g id="编组" transform="translate(778.4902, 1918.7324)" fill="#000000" fill-rule="nonzero">
                    <path d="M0.8203116,14.423832 C1.3378896,14.423832 1.5917956,14.2285116 1.7773436,13.681636 L3.0371096,10.234376 L8.7988296,10.234376 L10.0585956,13.681636 C10.2441424,14.228512 10.4980496,14.423832 11.0058616,14.423832 C11.5234396,14.423832 11.8554716,14.111324 11.8554716,13.623042 C11.8554716,13.4570264 11.8261748,13.300776 11.7480498,13.095698 L7.1679698,0.898438 C6.9433598,0.302734 6.5429698,0 5.9179698,0 C5.3125018,0 4.9023458,0.292968 4.6875018,0.888672 L0.1074218,13.105472 C0.0292968,13.31055 -3.55271368e-16,13.4668 -3.55271368e-16,13.632816 C-3.55271368e-16,14.121098 0.3125,14.423832 0.820312,14.423832 L0.8203116,14.423832 Z M3.5156316,8.750004 L5.8886716,2.177744 L5.9374998,2.177744 L8.3105398,8.750004 L3.5156316,8.750004 Z" id="形状"></path>
                </g>
                <line x1="792.836" y1="1919" x2="792.836" y2="1933" id="路径" stroke="#00AEEF" stroke-width="0.5"></line>
                <text id="Margins" fill="#000000" fill-rule="nonzero" font-family="Helvetica" font-size="13" font-weight="normal">
                    <tspan x="776" y="1953">Margins</tspan>
                </text>
                <text id="Leading-and-trailing-margins-on-the-left-and-right-side-of-each-symbol" fill="#000000" fill-rule="nonzero" font-family="Helvetica" font-size="13" font-weight="normal">
                    <tspan x="776" y="1971">Leading and trailing margins on the left and right side of each symbol</tspan>
                </text>
                <text id="can-be-adjusted-by-modifying-the-x-location-of-the-margin-guidelines." fill="#000000" fill-rule="nonzero" font-family="Helvetica" font-size="13" font-weight="normal">
                    <tspan x="776" y="1989">can be adjusted by modifying the x-location of the margin guidelines.</tspan>
                </text>
                <text id="Modifications-are-automatically-applied-proportionally-to-all" fill="#000000" fill-rule="nonzero" font-family="Helvetica" font-size="13" font-weight="normal">
                    <tspan x="776" y="2007">Modifications are automatically applied proportionally to all</tspan>
                </text>
                <text id="scales-and-weights." fill="#000000" fill-rule="nonzero" font-family="Helvetica" font-size="13" font-weight="normal">
                    <tspan x="776" y="2025">scales and weights.</tspan>
                </text>
                <g id="编组" transform="translate(1291.2481, 1914.5174)" fill="#000000" fill-rule="nonzero">
                    <path d="M0.593687825,20.3477978 L2.29290583,22.0567818 C3.15228183,22.9259218 4.13860983,22.8673278 5.06634583,21.8419378 L15.7597058,10.0548378 L14.7929098,9.07827578 L4.17766983,20.7579558 C3.82610783,21.1583458 3.49407583,21.2560018 3.02532583,20.7872526 L1.85344983,19.6251426 C1.38469983,19.1661586 1.49212183,18.8243606 1.89251223,18.4630326 L13.3671122,7.66225258 L12.3905502,6.69545658 L0.798750225,17.5841366 C-0.187577775,18.5021046 -0.265703775,19.4786686 0.593672225,20.3478166 L0.593687825,20.3477978 Z M7.00970783,2.15443778 C6.58978583,2.56459378 6.56048983,3.14076578 6.79486383,3.53139178 C7.02923983,3.89271978 7.48822383,4.12709578 8.13275383,3.96107978 C9.59759783,3.61928378 11.1210338,3.56068978 12.5468138,4.49818978 L11.9608758,5.95326778 C11.6190798,6.78334578 11.7948602,7.36928378 12.3319698,7.91615778 L14.6268898,10.2306178 C15.1151718,10.7188998 15.5253278,10.7384298 16.0917338,10.6407738 L17.1561878,10.4454614 L17.8202498,11.1192894 L17.7811874,11.6759294 C17.742125,12.1739754 17.869078,12.5548354 18.3573594,13.0333514 L19.1190774,13.7755394 C19.5975934,14.2540554 20.2128274,14.2833514 20.6815774,13.8146018 L23.5917374,10.8946818 C24.0604874,10.4259318 24.0409554,9.83022778 23.5624406,9.35171378 L22.7909566,8.58999578 C22.3124406,8.11147978 21.9413466,7.95522978 21.4628326,7.99429178 L20.8866606,8.04311998 L20.2421286,7.40835398 L20.4862686,6.28530798 C20.6132218,5.71890198 20.4569718,5.27944798 19.8710346,4.69351198 L17.6737746,2.50601198 C14.3339346,-0.814308021 9.90033463,-0.736168021 7.00971463,2.15444998 L7.00970783,2.15443778 Z M8.50384783,2.52553178 C10.9354878,0.748187779 14.2265078,1.05092178 16.4530678,3.27748578 L18.8847078,5.68958578 C19.1190838,5.92396178 19.1581458,6.10950778 19.0897858,6.45130378 L18.7675198,7.93567978 L20.2714258,9.42005578 L21.2577538,9.36146198 C21.5116598,9.35169636 21.5897858,9.3712276 21.7850978,9.56653998 L22.3612698,10.142712 L19.9198698,12.584112 L19.3436978,12.00794 C19.1483854,11.8126276 19.1190878,11.734502 19.1288538,11.47083 L19.1972132,10.494268 L17.7030732,9.00989198 L16.1796352,9.26379798 C15.8573692,9.33215738 15.7108852,9.30286038 15.4667452,9.06848558 L13.4647852,7.06652558 C13.2108792,6.83214958 13.1815812,6.66613558 13.337832,6.29504158 L14.216738,4.20520158 C12.654238,2.75012358 10.622978,2.12512158 8.59173803,2.72082558 C8.43548803,2.75988798 8.37689403,2.63293498 8.50384743,2.52551318 L8.50384783,2.52553178 Z" id="形状"></path>
                </g>
                <text id="Exporting" fill="#000000" fill-rule="nonzero" font-family="Helvetica" font-size="13" font-weight="normal">
                    <tspan x="1289" y="1953">Exporting</tspan>
                </text>
                <text id="Symbols-should-be-outlined-when-exporting-to-ensure-the" fill="#000000" fill-rule="nonzero" font-family="Helvetica" font-size="13" font-weight="normal">
                    <tspan x="1289" y="1971">Symbols should be outlined when exporting to ensure the</tspan>
                </text>
                <text id="design-is-preserved-when-submitting-to-Xcode." fill="#000000" fill-rule="nonzero" font-family="Helvetica" font-size="13" font-weight="normal">
                    <tspan x="1289" y="1989">design is preserved when submitting to Xcode.</tspan>
                </text>
                <text id="template-version" fill="#000000" fill-rule="nonzero" font-family="Helvetica" font-size="13" font-weight="normal">
                    <tspan x="2952" y="1933">Template v.5.0</tspan>
                </text>
                <text id="Requires-Xcode-15-or-greater" fill="#000000" fill-rule="nonzero" font-family="Helvetica" font-size="13" font-weight="normal">
                    <tspan x="2865" y="1951">Requires Xcode 15 or greater</tspan>
                </text>
                <text id="descriptive-name" fill="#000000" fill-rule="nonzero" font-family="Helvetica" font-size="13" font-weight="normal">
                    <tspan x="2822" y="1969">Generated from square.and.arrow.up</tspan>
                </text>
                <text id="Typeset-at-100.0-points" fill="#000000" fill-rule="nonzero" font-family="Helvetica" font-size="13" font-weight="normal">
                    <tspan x="2901" y="1987">Typeset at 100.0 points</tspan>
                </text>
                <text id="Small" fill="#000000" fill-rule="nonzero" font-family="Helvetica" font-size="13" font-weight="normal">
                    <tspan x="263" y="726">Small</tspan>
                </text>
                <text id="Medium" fill="#000000" fill-rule="nonzero" font-family="Helvetica" font-size="13" font-weight="normal">
                    <tspan x="263" y="1156">Medium</tspan>
                </text>
                <text id="Large" fill="#000000" fill-rule="nonzero" font-family="Helvetica" font-size="13" font-weight="normal">
                    <tspan x="263" y="1586">Large</tspan>
                </text>
            </g>
            <g id="Guides" transform="translate(263, 600.785)">
                <g id="H-reference" transform="translate(76.9937, 24.756)" fill="#27AAE1" fill-rule="nonzero">
                    <path d="M0,70.459 L2.644096,70.459 L28.334446,3.3267 L29.036646,3.3267 L29.036646,0 L27.128946,0 L0,70.459 Z M10.694846,45.9791 L45.987846,45.9791 L45.237846,43.7305 L11.444846,43.7305 L10.694846,45.9791 Z M54.125946,70.459 L56.770046,70.459 L29.644546,0 L28.438946,0 L28.438946,3.3267 L54.125946,70.459 Z" id="形状"></path>
                </g>
                <line x1="0" y1="95.215" x2="2773" y2="95.215" id="Baseline-S" stroke="#27AAE1" stroke-width="0.5"></line>
                <line x1="0" y1="24.756" x2="2773" y2="24.756" id="Capline-S" stroke="#27AAE1" stroke-width="0.5"></line>
                <g id="H-reference" transform="translate(76.9937, 454.756)" fill="#27AAE1" fill-rule="nonzero">
                    <path d="M0,70.459 L2.644096,70.459 L28.334446,3.3267 L29.036646,3.3267 L29.036646,0 L27.128946,0 L0,70.459 Z M10.694846,45.9791 L45.987846,45.9791 L45.237846,43.7305 L11.444846,43.7305 L10.694846,45.9791 Z M54.125946,70.459 L56.770046,70.459 L29.644546,0 L28.438946,0 L28.438946,3.3267 L54.125946,70.459 Z" id="形状"></path>
                </g>
                <line x1="0" y1="525.215" x2="2773" y2="525.215" id="Baseline-M" stroke="#27AAE1" stroke-width="0.5"></line>
                <line x1="0" y1="454.755" x2="2773" y2="454.755" id="Capline-M" stroke="#27AAE1" stroke-width="0.5"></line>
                <g id="H-reference" transform="translate(76.9937, 884.756)" fill="#27AAE1" fill-rule="nonzero">
                    <path d="M0,70.459 L2.644096,70.459 L28.334446,3.3267 L29.036646,3.3267 L29.036646,0 L27.128946,0 L0,70.459 Z M10.694846,45.9791 L45.987846,45.9791 L45.237846,43.7305 L11.444846,43.7305 L10.694846,45.9791 Z M54.125946,70.459 L56.770046,70.459 L29.644546,0 L28.438946,0 L28.438946,3.3267 L54.125946,70.459 Z" id="形状"></path>
                </g>
                <line x1="0" y1="955.215" x2="2773" y2="955.215" id="Baseline-L" stroke="#27AAE1" stroke-width="0.5"></line>
                <line x1="0" y1="884.755" x2="2773" y2="884.755" id="Capline-L" stroke="#27AAE1" stroke-width="0.5"></line>
                <line x1="254.797" y1="1.13686838e-13" x2="254.797" y2="119.336" id="left-margin-Ultralight-S" stroke="#00AEEF" stroke-width="0.5"></line>
                <line x1="338.625" y1="1.13686838e-13" x2="338.625" y2="119.336" id="right-margin-Ultralight-S" stroke="#00AEEF" stroke-width="0.5"></line>
                <line x1="1142.73" y1="1.13686838e-13" x2="1142.73" y2="119.336" id="left-margin-Regular-S" stroke="#00AEEF" stroke-width="0.5"></line>
                <line x1="1230.96" y1="1.13686838e-13" x2="1230.96" y2="119.336" id="right-margin-Regular-S" stroke="#00AEEF" stroke-width="0.5"></line>
                <line x1="2622.99" y1="1.13686838e-13" x2="2622.99" y2="119.336" id="left-margin-Black-S" stroke="#00AEEF" stroke-width="0.5"></line>
                <line x1="2717.81" y1="1.13686838e-13" x2="2717.81" y2="119.336" id="right-margin-Black-S" stroke="#00AEEF" stroke-width="0.5"></line>
            </g>
            <g id="Symbols" transform="translate(524, 622)" fill="#000000" fill-rule="nonzero">
                <g id="Black-S" transform="translate(2373, 0)">
                    <path d="M42.3380475,46.9436927 C42.6479014,45.9577685 42.6760831,45.0070642 42.4225925,44.0915796 C42.1690442,43.1760951 41.6690435,42.4296137 40.9225904,41.8521356 C40.1760796,41.2746575 39.2817089,40.9859184 38.2394784,40.9859184 L32.4930183,40.9859184 L43.4789283,22.140892 C43.9014511,21.4084582 43.9929766,20.626757 43.7535047,19.7957885 C43.5140905,18.96482 43.0422714,18.3380745 42.3380475,17.915552 C41.6056709,17.5493352 40.8662271,17.4859337 40.1197163,17.7253477 C39.3732632,17.9648194 38.7465172,18.4366669 38.2394784,19.1408902 L37.3521459,20.4084576 L36.7183617,19.1408902 C36.2957812,18.3521509 35.6901498,17.8451124 34.9014675,17.6197748 C34.1127275,17.3943795 33.3521403,17.4929719 32.6197059,17.915552 C31.8591765,18.3943801 31.373281,19.0281637 31.1620196,19.8169031 C30.9507582,20.6056424 31.0704653,21.3803054 31.5211409,22.140892 L34.014135,26.4084611 L25.6056775,40.9859184 L19.0563434,40.9859184 C18.1830874,40.9859184 17.4577489,41.2676193 16.880328,41.831021 C16.3028494,42.3943651 16.0141101,43.1126648 16.0141101,43.9859201 C16.0141101,44.8310227 16.3028494,45.5352461 16.880328,46.0985901 C17.4577489,46.6619918 18.1830874,46.9436927 19.0563434,46.9436927 L42.3380475,46.9436927 Z M21.0000118,54.9718213 C21.7042357,55.3943437 22.4507176,55.4858979 23.2394576,55.2464839 C24.0281976,55.0070699 24.633829,54.5352513 25.0563518,53.8310279 L27.2957976,49.9859236 C27.0422493,49.4507323 26.6126594,49.0000283 26.007028,48.6338114 C25.4013967,48.2675945 24.6901346,48.0281516 23.8732418,47.9154828 C23.056349,47.802814 22.2253798,47.8591484 21.3803342,48.084486 L19.9014467,50.9154845 C19.5070767,51.6760711 19.401446,52.4507341 19.5845546,53.2394734 C19.7676055,54.0282128 20.2394246,54.6056621 21.0000118,54.9718213 Z M53.9577417,54.9718213 C54.6901761,54.5774516 55.1479476,53.9929641 55.3310562,53.2183588 C55.5141071,52.4436959 55.3943711,51.6760711 54.9718484,50.9154845 L52.7324025,46.9436927 L55.7324067,46.9436927 C56.6056628,46.9436927 57.3662211,46.6619918 58.0140817,46.0985901 C58.662,45.5352461 58.9859591,44.8310227 58.9859591,43.9859201 C58.9859591,43.1126648 58.6761052,42.3943651 58.0563974,41.831021 C57.436632,41.2676193 56.6619684,40.9859184 55.7324067,40.9859184 L49.3521625,40.9859184 L41.9578116,28.1408954 C41.1127084,28.6197234 40.4788953,29.4295774 40.0563725,30.5704572 C39.6338497,31.7112794 39.4577793,32.9436558 39.5281613,34.2675864 C39.598601,35.5915747 39.9295984,36.7465021 40.5211534,37.7323686 L49.8591725,53.8310279 C50.2816953,54.5915568 50.8802885,55.0844901 51.6549521,55.3098277 C52.4296157,55.535223 53.1972122,55.422535 53.9577417,54.9718213 Z M16.4788909,75 C11.1267432,75 7.04222159,73.5915505 4.22532603,70.7746514 C1.40844201,67.9577524 0,63.8732513 0,58.5211483 L0,16.4788949 C0,11.1268092 1.40844201,7.0422909 4.22532603,4.22533992 C7.04222159,1.40844664 11.1267432,0 16.4788909,0 L58.5211783,0 C63.8732683,0 67.9577611,1.40844664 70.7746567,4.22533992 C73.5915522,7.0422909 75,11.1268092 75,16.4788949 L75,58.5211483 C75,63.8732513 73.5915522,67.9577524 70.7746567,70.7746514 C67.9577611,73.5915505 63.8732683,75 58.5211783,75 L16.4788909,75 Z" id="形状"></path>
                </g>
                <g id="Regular-S" transform="translate(888, 2)">
                    <path d="M43.1986811,47.7243036 C43.4936734,46.7768914 43.5221584,45.8220391 43.284136,44.8597467 C43.0461135,43.897515 42.5567676,43.1054033 41.8160983,42.4834116 C41.0754896,41.8614199 40.1276818,41.5504241 38.9726749,41.5504241 L31.8107754,41.5504241 L44.3996952,19.7953519 C44.8445827,19.0243154 44.9776542,18.224794 44.7989096,17.3967877 C44.6201651,16.5687206 44.1296652,15.9322739 43.32741,15.4874475 C42.5314106,15.1003805 41.7268171,15.0266477 40.9136295,15.266249 C40.1003812,15.5057896 39.4721332,16.0079806 39.0288856,16.7728221 L37.9495854,18.7370975 L36.7508489,16.7728221 C36.2841573,16.0064623 35.6637139,15.5038764 34.8895185,15.2650647 C34.1153231,15.0262529 33.3427068,15.1003805 32.5716697,15.4874475 C31.772512,15.9322739 31.2843505,16.5687206 31.107185,17.3967877 C30.9300196,18.224794 31.0638806,19.0243154 31.5087681,19.7953519 L34.4821048,24.9508802 L24.789266,41.5504241 L17.2223216,41.5504241 C16.3669836,41.5504241 15.6283184,41.8469649 15.0063262,42.4400465 C14.384334,43.0331889 14.0733379,43.7878572 14.0733379,44.7040514 C14.0733379,45.5328472 14.3913489,46.2434216 15.0273711,46.8357744 C15.6634539,47.4281272 16.3951041,47.7243036 17.2223216,47.7243036 L43.1986811,47.7243036 Z M19.4535311,56.7639244 C20.2230499,57.2352922 21.0210536,57.3445552 21.8475422,57.0917136 C22.6739702,56.8388112 23.3088383,56.3276313 23.7521467,55.5581739 L26.1144539,51.3415549 C25.9068599,50.9263674 25.5076759,50.5263941 24.9169017,50.1416351 C24.3261275,49.756876 23.6014923,49.4903689 22.742996,49.3421137 C21.8845605,49.1938584 20.9808467,49.2383471 20.0318546,49.4755798 L18.5170809,52.5379217 C18.101893,53.3651992 17.9684268,54.1721607 18.1166821,54.9588062 C18.2649982,55.7454517 18.7106145,56.3471577 19.4535311,56.7639244 Z M56.4501948,56.7639244 C57.221232,56.319098 57.6961228,55.6959219 57.8748674,54.8943962 C58.053612,54.0929313 57.9205405,53.3074398 57.475653,52.5379217 L54.626399,47.7243036 L58.6345774,47.7243036 C59.5227125,47.7243036 60.278171,47.4281272 60.9009528,46.8357744 C61.5237346,46.2434216 61.8351255,45.5328472 61.8351255,44.7040514 C61.8351255,43.7597367 61.5307495,42.9980534 60.9219976,42.4190017 C60.3133065,41.83995 59.5508331,41.5504241 58.6345774,41.5504241 L51.2034678,41.5504241 L42.9293799,27.2803882 C42.1005833,27.8438917 41.4867904,28.7331801 41.0880011,29.9482534 C40.6892118,31.1633875 40.5495202,32.4741191 40.6689262,33.8804483 C40.7883322,35.2867169 41.1594261,36.509625 41.7822079,37.5491729 L52.2359409,55.5581739 C52.6791885,56.2995715 53.2859665,56.7966911 54.0562748,57.0495328 C54.8265224,57.3023745 55.6244957,57.2071716 56.4501948,56.7639244 Z M16.3513745,75 C11.0351357,75 6.98085909,73.6038257 4.1885446,70.8114772 C1.39618153,68.0191347 0,63.9648645 0,58.6486667 L0,16.3513788 C0,11.0351446 1.39618153,6.98087137 4.1885446,4.18855926 C6.98085909,1.39618642 11.0351357,0 16.3513745,0 L58.6486984,0 C63.963358,0 68.0172399,1.39734039 70.8103439,4.19202118 C73.603448,6.98670197 75,11.0398212 75,16.3513788 L75,58.6486667 C75,63.9601818 73.603448,68.0132828 70.8103439,70.8079697 C68.0172399,73.6026566 63.963358,75 58.6486984,75 L16.3513745,75 Z" id="形状"></path>
                </g>
                <g id="Ultralight-S" transform="translate(0, 1)">
                    <path d="M42.6214565,47.8134634 C42.8953452,46.8736361 42.9039934,45.9262766 42.6474009,44.9713849 C42.3908084,44.0164311 41.8913241,43.2283339 41.1489479,42.6070932 C40.4066337,41.9858525 39.4596468,41.6752322 38.3079874,41.6752322 L30.9976122,41.6752322 L43.8474466,19.4285726 C44.3014894,18.6414983 44.4304986,17.8458378 44.2344741,17.0415912 C44.0383876,16.2372826 43.5172674,15.6081067 42.6711135,15.1540635 C41.9403922,14.7316992 41.1804407,14.6632269 40.3912592,14.9486467 C39.6021397,15.2341286 38.9949721,15.7126593 38.5697563,16.3842391 L37.2636082,18.5119621 L36.0809518,16.3842391 C35.7409156,15.6837702 35.1485335,15.1980171 34.3038055,14.9269799 C33.4590155,14.6560046 32.6431146,14.7316992 31.8561029,15.1540635 C31.0676653,15.6081067 30.5898478,16.2372826 30.4226504,17.0415912 C30.255453,17.8458378 30.3988758,18.6414983 30.8529186,19.4285726 L33.765296,24.6089984 L23.9533767,41.6752322 L16.1479188,41.6752322 C15.3566295,41.6752322 14.6503647,41.9779173 14.0291245,42.5832875 C13.4078222,43.1887198 13.0971711,43.9317785 13.0971711,44.8124635 C13.0971711,45.6311548 13.4081632,46.3359942 14.0301474,46.9269819 C14.6521315,47.5179695 15.3580553,47.8134634 16.1479188,47.8134634 L42.6214565,47.8134634 Z M18.5480101,57.2039557 C19.3061947,57.6305356 20.0729965,57.7079659 20.8484154,57.4362467 C21.6238343,57.1645275 22.2241516,56.6495754 22.6493673,55.8913902 L25.1424494,51.7509738 C24.9305545,51.3272456 24.543527,50.9258352 23.9813669,50.5467426 C23.4192688,50.1676501 22.7137169,49.9024092 21.8647113,49.7510202 C21.0157678,49.5996931 20.1069691,49.6451036 19.1383154,49.8872517 L17.5512422,52.8903904 C17.1274524,53.6802544 16.9912209,54.4834781 17.1425479,55.3000615 C17.2938748,56.116645 17.7623623,56.7512763 18.5480101,57.2039557 Z M56.0657807,57.2039557 C56.8528544,56.7499125 57.3444035,56.1070049 57.540428,55.275233 C57.7364525,54.4435231 57.6074434,53.6485755 57.1534005,52.8903904 L54.2041988,47.8134634 L58.3772518,47.8134634 C59.2565104,47.8134634 60.0139821,47.5179695 60.6496669,46.9269819 C61.2853517,46.3359942 61.6031941,45.6311548 61.6031941,44.8124635 C61.6031941,43.9303526 61.2856926,43.186953 60.6506898,42.5822646 C60.0157489,41.9775763 59.2579363,41.6752322 58.3772518,41.6752322 L50.7511731,41.6752322 L42.3057529,27.2730925 C41.4870623,27.8482717 40.8877988,28.7491668 40.5079626,29.9757778 C40.1281884,31.2024507 40.0060605,32.5130634 40.141579,33.9076157 C40.2770976,35.3021681 40.6626992,36.5436266 41.298384,37.6319912 L51.968701,55.8913902 C52.3939168,56.6481495 52.9928082,57.1623888 53.7653754,57.4341079 C54.5380046,57.7058891 55.3048063,57.6291717 56.0657807,57.2039557 Z M14.0321002,75 C9.50537226,75 6.03501933,73.7930008 3.62104135,71.3790024 C1.20701378,68.9649979 0,65.4946393 0,60.9679266 L0,14.0320362 C0,9.50536693 1.20701378,6.03501142 3.62104135,3.62096965 C6.03501933,1.20698988 9.50537226,0 14.0321002,0 L60.9678812,0 C65.46572,0 68.9288507,1.22865675 71.3572732,3.68597024 C73.7857577,6.14322174 75,9.59191039 75,14.0320362 L75,60.9679266 C75,65.408071 73.7857577,68.8567876 71.3572732,71.3140763 C68.9288507,73.7713588 65.46572,75 60.9678812,75 L14.0321002,75 Z" id="形状"></path>
                </g>
            </g>
        </g>
    </g>
</svg>