<?xml version="1.0" encoding="UTF-8"?>
<svg width="3300px" height="2200px" viewBox="0 0 3300 2200" version="1.1" xmlns="http://www.w3.org/2000/svg" xmlns:xlink="http://www.w3.org/1999/xlink">
    <title>square.and.arrow.up</title>
    <g id="页面-1" stroke="none" stroke-width="1" fill="none" fill-rule="evenodd">
        <g id="square.and.arrow.up">
            <g id="Notes">
                <rect id="artboard" fill="#FFFFFF" fill-rule="nonzero" x="0" y="0" width="3300" height="2200"></rect>
                <line x1="263" y1="292" x2="3036" y2="292" id="路径" stroke="#000000" stroke-width="0.5"></line>
                <text id="Weight/Scale-Variations" fill="#000000" fill-rule="nonzero" font-family="Helvetica" font-size="13" font-weight="normal">
                    <tspan x="263" y="322">Weight/Scale Variations</tspan>
                </text>
                <text id="Ultralight" fill="#000000" fill-rule="nonzero" font-family="Helvetica" font-size="13" font-weight="normal">
                    <tspan x="533.711" y="322">Ultralight</tspan>
                </text>
                <text id="Thin" fill="#000000" fill-rule="nonzero" font-family="Helvetica" font-size="13" font-weight="normal">
                    <tspan x="843.422" y="322">Thin</tspan>
                </text>
                <text id="Light" fill="#000000" fill-rule="nonzero" font-family="Helvetica" font-size="13" font-weight="normal">
                    <tspan x="1138.63" y="322">Light</tspan>
                </text>
                <text id="Regular" fill="#000000" fill-rule="nonzero" font-family="Helvetica" font-size="13" font-weight="normal">
                    <tspan x="1426.84" y="322">Regular</tspan>
                </text>
                <text id="Medium" fill="#000000" fill-rule="nonzero" font-family="Helvetica" font-size="13" font-weight="normal">
                    <tspan x="1723.06" y="322">Medium</tspan>
                </text>
                <text id="Semibold" fill="#000000" fill-rule="nonzero" font-family="Helvetica" font-size="13" font-weight="normal">
                    <tspan x="2015.77" y="322">Semibold</tspan>
                </text>
                <text id="Bold" fill="#000000" fill-rule="nonzero" font-family="Helvetica" font-size="13" font-weight="normal">
                    <tspan x="2326.48" y="322">Bold</tspan>
                </text>
                <text id="Heavy" fill="#000000" fill-rule="nonzero" font-family="Helvetica" font-size="13" font-weight="normal">
                    <tspan x="2618.19" y="322">Heavy</tspan>
                </text>
                <text id="Black" fill="#000000" fill-rule="nonzero" font-family="Helvetica" font-size="13" font-weight="normal">
                    <tspan x="2917.4" y="322">Black</tspan>
                </text>
                <line x1="263" y1="1903" x2="3036" y2="1903" id="路径" stroke="#000000" stroke-width="0.5"></line>
                <g id="编组" transform="translate(264.3672, 1918.0684)" fill="#000000" fill-rule="nonzero">
                    <path d="M7.88088,15.76172 C12.18752,15.76172 15.7715,12.1875 15.7715,7.88086 C15.7715,3.57422 12.17774,0 7.8711,0 C3.57422,0 0,3.57422 0,7.88086 C0,12.1875 3.58398,15.76172 7.88086,15.76172 L7.88088,15.76172 Z M7.88088,14.277344 C4.33596,14.277344 1.50392,11.435544 1.50392,7.880864 C1.50392,4.326184 4.32618,1.484384 7.8711,1.484384 C11.42578,1.484384 14.27734,4.326184 14.27734,7.880864 C14.27734,11.435544 11.43554,14.277344 7.88086,14.277344 L7.88088,14.277344 Z M4.28712,7.880864 C4.28712,8.310552 4.589854,8.60352 5.039074,8.60352 L7.138674,8.60352 L7.138674,10.72266 C7.138674,11.162114 7.431642,11.464848 7.86133,11.464848 C8.310548,11.464848 8.603518,11.162114 8.603518,10.72266 L8.603518,8.60352 L10.722658,8.60352 C11.162112,8.60352 11.464846,8.310552 11.464846,7.880864 C11.464846,7.44141 11.162112,7.138676 10.722658,7.138676 L8.603518,7.138676 L8.603518,5.029296 C8.603518,4.580078 8.31055,4.277342 7.86133,4.277342 C7.431642,4.277342 7.138674,4.580076 7.138674,5.029296 L7.138674,7.138676 L5.039074,7.138676 C4.589856,7.138676 4.28712,7.44141 4.28712,7.880864 Z" id="形状"></path>
                </g>
                <g id="编组" transform="translate(283.254, 1915.9883)" fill="#000000" fill-rule="nonzero">
                    <path d="M9.96094,19.92188 C15.41016,19.92188 19.92188,15.4004 19.92188,9.96094 C19.92188,4.51172 15.4004,0 9.95118,0 C4.51172,0 0,4.51172 0,9.96094 C0,15.4004 4.52148,19.92188 9.96094,19.92188 Z M9.96094,18.261724 C5.35156,18.261724 1.66992,14.570324 1.66992,9.960944 C1.66992,5.351564 5.3418,1.660164 9.95116,1.660164 C14.56052,1.660164 18.2617,5.351564 18.2617,9.960944 C18.2617,14.570324 14.5703,18.261724 9.96092,18.261724 L9.96094,18.261724 Z M5.4297,9.960944 C5.4297,10.43946 5.761732,10.761726 6.259778,10.761726 L9.130878,10.761726 L9.130878,13.642586 C9.130878,14.130868 9.46291,14.472664 9.941424,14.472664 C10.4297,14.472664 10.771502,14.140632 10.771502,13.642586 L10.771502,10.761726 L13.652362,10.761726 C14.140644,10.761726 14.48244,10.43946 14.48244,9.960944 C14.48244,9.472662 14.140644,9.130866 13.652362,9.130866 L10.771502,9.130866 L10.771502,6.259766 C10.771502,5.76172 10.4297,5.419922 9.941424,5.419922 C9.462908,5.419922 9.130878,5.761718 9.130878,6.259766 L9.130878,9.130866 L6.259778,9.130866 C5.761732,9.130866 5.4297,9.472662 5.4297,9.960944 Z" id="形状"></path>
                </g>
                <g id="编组" transform="translate(307.1798, 1913.2246)" fill="#000000" fill-rule="nonzero">
                    <path d="M12.71486,25.43944 C19.67776,25.43944 25.43946,19.67772 25.43946,12.7246 C25.43946,5.7617 19.66798,0 12.70508,0 C5.75196,0 -1.42108547e-15,5.76172 -1.42108547e-15,12.7246 C-1.42108547e-15,19.67772 5.76172,25.43944 12.71484,25.43944 L12.71486,25.43944 Z M12.71486,23.623034 C6.6797,23.623034 1.82618,18.759754 1.82618,12.724594 C1.82618,6.679674 6.66994,1.826154 12.70508,1.826154 C18.75,1.826154 23.61328,6.679674 23.61328,12.724594 C23.61328,18.759754 18.75976,23.623034 12.71484,23.623034 L12.71486,23.623034 Z M6.94338,12.724594 C6.94338,13.242172 7.314474,13.6035 7.861348,13.6035 L11.806668,13.6035 L11.806668,17.55858 C11.806668,18.09569 12.177762,18.476548 12.69534,18.476548 C13.23245,18.476548 13.603544,18.105454 13.603544,17.55858 L13.603544,13.6035 L17.558624,13.6035 C18.095734,13.6035 18.476592,13.242172 18.476592,12.724594 C18.476592,12.177718 18.105498,11.806626 17.558624,11.806626 L13.603544,11.806626 L13.603544,7.861306 C13.603544,7.31443 13.23245,6.933572 12.69534,6.933572 C12.177762,6.933572 11.806668,7.314432 11.806668,7.861306 L11.806668,11.806626 L7.861348,11.806626 C7.314472,11.806626 6.94338,12.17772 6.94338,12.724594 Z" id="形状"></path>
                </g>
                <text id="Design-Variations" fill="#000000" fill-rule="nonzero" font-family="Helvetica" font-size="13" font-weight="normal">
                    <tspan x="263" y="1953">Design Variations</tspan>
                </text>
                <text id="Symbols-are-supported-in-up-to-nine-weights-and-three-scales." fill="#000000" fill-rule="nonzero" font-family="Helvetica" font-size="13" font-weight="normal">
                    <tspan x="263" y="1971">Symbols are supported in up to nine weights and three scales.</tspan>
                </text>
                <text id="For-optimal-layout-with-text-and-other-symbols,-vertically-align" fill="#000000" fill-rule="nonzero" font-family="Helvetica" font-size="13" font-weight="normal">
                    <tspan x="263" y="1989">For optimal layout with text and other symbols, vertically align</tspan>
                </text>
                <text id="symbols-with-the-adjacent-text." fill="#000000" fill-rule="nonzero" font-family="Helvetica" font-size="13" font-weight="normal">
                    <tspan x="263" y="2007">symbols with the adjacent text.</tspan>
                </text>
                <line x1="776" y1="1919" x2="776" y2="1933" id="路径" stroke="#00AEEF" stroke-width="0.5"></line>
                <g id="编组" transform="translate(778.4902, 1918.7324)" fill="#000000" fill-rule="nonzero">
                    <path d="M0.8203116,14.423832 C1.3378896,14.423832 1.5917956,14.2285116 1.7773436,13.681636 L3.0371096,10.234376 L8.7988296,10.234376 L10.0585956,13.681636 C10.2441424,14.228512 10.4980496,14.423832 11.0058616,14.423832 C11.5234396,14.423832 11.8554716,14.111324 11.8554716,13.623042 C11.8554716,13.4570264 11.8261748,13.300776 11.7480498,13.095698 L7.1679698,0.898438 C6.9433598,0.302734 6.5429698,0 5.9179698,0 C5.3125018,0 4.9023458,0.292968 4.6875018,0.888672 L0.1074218,13.105472 C0.0292968,13.31055 -3.55271368e-16,13.4668 -3.55271368e-16,13.632816 C-3.55271368e-16,14.121098 0.3125,14.423832 0.820312,14.423832 L0.8203116,14.423832 Z M3.5156316,8.750004 L5.8886716,2.177744 L5.9374998,2.177744 L8.3105398,8.750004 L3.5156316,8.750004 Z" id="形状"></path>
                </g>
                <line x1="792.836" y1="1919" x2="792.836" y2="1933" id="路径" stroke="#00AEEF" stroke-width="0.5"></line>
                <text id="Margins" fill="#000000" fill-rule="nonzero" font-family="Helvetica" font-size="13" font-weight="normal">
                    <tspan x="776" y="1953">Margins</tspan>
                </text>
                <text id="Leading-and-trailing-margins-on-the-left-and-right-side-of-each-symbol" fill="#000000" fill-rule="nonzero" font-family="Helvetica" font-size="13" font-weight="normal">
                    <tspan x="776" y="1971">Leading and trailing margins on the left and right side of each symbol</tspan>
                </text>
                <text id="can-be-adjusted-by-modifying-the-x-location-of-the-margin-guidelines." fill="#000000" fill-rule="nonzero" font-family="Helvetica" font-size="13" font-weight="normal">
                    <tspan x="776" y="1989">can be adjusted by modifying the x-location of the margin guidelines.</tspan>
                </text>
                <text id="Modifications-are-automatically-applied-proportionally-to-all" fill="#000000" fill-rule="nonzero" font-family="Helvetica" font-size="13" font-weight="normal">
                    <tspan x="776" y="2007">Modifications are automatically applied proportionally to all</tspan>
                </text>
                <text id="scales-and-weights." fill="#000000" fill-rule="nonzero" font-family="Helvetica" font-size="13" font-weight="normal">
                    <tspan x="776" y="2025">scales and weights.</tspan>
                </text>
                <g id="编组" transform="translate(1291.2481, 1914.5174)" fill="#000000" fill-rule="nonzero">
                    <path d="M0.593687825,20.3477978 L2.29290583,22.0567818 C3.15228183,22.9259218 4.13860983,22.8673278 5.06634583,21.8419378 L15.7597058,10.0548378 L14.7929098,9.07827578 L4.17766983,20.7579558 C3.82610783,21.1583458 3.49407583,21.2560018 3.02532583,20.7872526 L1.85344983,19.6251426 C1.38469983,19.1661586 1.49212183,18.8243606 1.89251223,18.4630326 L13.3671122,7.66225258 L12.3905502,6.69545658 L0.798750225,17.5841366 C-0.187577775,18.5021046 -0.265703775,19.4786686 0.593672225,20.3478166 L0.593687825,20.3477978 Z M7.00970783,2.15443778 C6.58978583,2.56459378 6.56048983,3.14076578 6.79486383,3.53139178 C7.02923983,3.89271978 7.48822383,4.12709578 8.13275383,3.96107978 C9.59759783,3.61928378 11.1210338,3.56068978 12.5468138,4.49818978 L11.9608758,5.95326778 C11.6190798,6.78334578 11.7948602,7.36928378 12.3319698,7.91615778 L14.6268898,10.2306178 C15.1151718,10.7188998 15.5253278,10.7384298 16.0917338,10.6407738 L17.1561878,10.4454614 L17.8202498,11.1192894 L17.7811874,11.6759294 C17.742125,12.1739754 17.869078,12.5548354 18.3573594,13.0333514 L19.1190774,13.7755394 C19.5975934,14.2540554 20.2128274,14.2833514 20.6815774,13.8146018 L23.5917374,10.8946818 C24.0604874,10.4259318 24.0409554,9.83022778 23.5624406,9.35171378 L22.7909566,8.58999578 C22.3124406,8.11147978 21.9413466,7.95522978 21.4628326,7.99429178 L20.8866606,8.04311998 L20.2421286,7.40835398 L20.4862686,6.28530798 C20.6132218,5.71890198 20.4569718,5.27944798 19.8710346,4.69351198 L17.6737746,2.50601198 C14.3339346,-0.814308021 9.90033463,-0.736168021 7.00971463,2.15444998 L7.00970783,2.15443778 Z M8.50384783,2.52553178 C10.9354878,0.748187779 14.2265078,1.05092178 16.4530678,3.27748578 L18.8847078,5.68958578 C19.1190838,5.92396178 19.1581458,6.10950778 19.0897858,6.45130378 L18.7675198,7.93567978 L20.2714258,9.42005578 L21.2577538,9.36146198 C21.5116598,9.35169636 21.5897858,9.3712276 21.7850978,9.56653998 L22.3612698,10.142712 L19.9198698,12.584112 L19.3436978,12.00794 C19.1483854,11.8126276 19.1190878,11.734502 19.1288538,11.47083 L19.1972132,10.494268 L17.7030732,9.00989198 L16.1796352,9.26379798 C15.8573692,9.33215738 15.7108852,9.30286038 15.4667452,9.06848558 L13.4647852,7.06652558 C13.2108792,6.83214958 13.1815812,6.66613558 13.337832,6.29504158 L14.216738,4.20520158 C12.654238,2.75012358 10.622978,2.12512158 8.59173803,2.72082558 C8.43548803,2.75988798 8.37689403,2.63293498 8.50384743,2.52551318 L8.50384783,2.52553178 Z" id="形状"></path>
                </g>
                <text id="Exporting" fill="#000000" fill-rule="nonzero" font-family="Helvetica" font-size="13" font-weight="normal">
                    <tspan x="1289" y="1953">Exporting</tspan>
                </text>
                <text id="Symbols-should-be-outlined-when-exporting-to-ensure-the" fill="#000000" fill-rule="nonzero" font-family="Helvetica" font-size="13" font-weight="normal">
                    <tspan x="1289" y="1971">Symbols should be outlined when exporting to ensure the</tspan>
                </text>
                <text id="design-is-preserved-when-submitting-to-Xcode." fill="#000000" fill-rule="nonzero" font-family="Helvetica" font-size="13" font-weight="normal">
                    <tspan x="1289" y="1989">design is preserved when submitting to Xcode.</tspan>
                </text>
                <text id="template-version" fill="#000000" fill-rule="nonzero" font-family="Helvetica" font-size="13" font-weight="normal">
                    <tspan x="2952" y="1933">Template v.5.0</tspan>
                </text>
                <text id="Requires-Xcode-15-or-greater" fill="#000000" fill-rule="nonzero" font-family="Helvetica" font-size="13" font-weight="normal">
                    <tspan x="2865" y="1951">Requires Xcode 15 or greater</tspan>
                </text>
                <text id="descriptive-name" fill="#000000" fill-rule="nonzero" font-family="Helvetica" font-size="13" font-weight="normal">
                    <tspan x="2822" y="1969">Generated from square.and.arrow.up</tspan>
                </text>
                <text id="Typeset-at-100.0-points" fill="#000000" fill-rule="nonzero" font-family="Helvetica" font-size="13" font-weight="normal">
                    <tspan x="2901" y="1987">Typeset at 100.0 points</tspan>
                </text>
                <text id="Small" fill="#000000" fill-rule="nonzero" font-family="Helvetica" font-size="13" font-weight="normal">
                    <tspan x="263" y="726">Small</tspan>
                </text>
                <text id="Medium" fill="#000000" fill-rule="nonzero" font-family="Helvetica" font-size="13" font-weight="normal">
                    <tspan x="263" y="1156">Medium</tspan>
                </text>
                <text id="Large" fill="#000000" fill-rule="nonzero" font-family="Helvetica" font-size="13" font-weight="normal">
                    <tspan x="263" y="1586">Large</tspan>
                </text>
            </g>
            <g id="Guides" transform="translate(263, 600.785)">
                <g id="H-reference" transform="translate(76.9937, 24.756)" fill="#27AAE1" fill-rule="nonzero">
                    <path d="M0,70.459 L2.644096,70.459 L28.334446,3.3267 L29.036646,3.3267 L29.036646,0 L27.128946,0 L0,70.459 Z M10.694846,45.9791 L45.987846,45.9791 L45.237846,43.7305 L11.444846,43.7305 L10.694846,45.9791 Z M54.125946,70.459 L56.770046,70.459 L29.644546,0 L28.438946,0 L28.438946,3.3267 L54.125946,70.459 Z" id="形状"></path>
                </g>
                <line x1="0" y1="95.215" x2="2773" y2="95.215" id="Baseline-S" stroke="#27AAE1" stroke-width="0.5"></line>
                <line x1="0" y1="24.756" x2="2773" y2="24.756" id="Capline-S" stroke="#27AAE1" stroke-width="0.5"></line>
                <g id="H-reference" transform="translate(76.9937, 454.756)" fill="#27AAE1" fill-rule="nonzero">
                    <path d="M0,70.459 L2.644096,70.459 L28.334446,3.3267 L29.036646,3.3267 L29.036646,0 L27.128946,0 L0,70.459 Z M10.694846,45.9791 L45.987846,45.9791 L45.237846,43.7305 L11.444846,43.7305 L10.694846,45.9791 Z M54.125946,70.459 L56.770046,70.459 L29.644546,0 L28.438946,0 L28.438946,3.3267 L54.125946,70.459 Z" id="形状"></path>
                </g>
                <line x1="0" y1="525.215" x2="2773" y2="525.215" id="Baseline-M" stroke="#27AAE1" stroke-width="0.5"></line>
                <line x1="0" y1="454.755" x2="2773" y2="454.755" id="Capline-M" stroke="#27AAE1" stroke-width="0.5"></line>
                <g id="H-reference" transform="translate(76.9937, 884.756)" fill="#27AAE1" fill-rule="nonzero">
                    <path d="M0,70.459 L2.644096,70.459 L28.334446,3.3267 L29.036646,3.3267 L29.036646,0 L27.128946,0 L0,70.459 Z M10.694846,45.9791 L45.987846,45.9791 L45.237846,43.7305 L11.444846,43.7305 L10.694846,45.9791 Z M54.125946,70.459 L56.770046,70.459 L29.644546,0 L28.438946,0 L28.438946,3.3267 L54.125946,70.459 Z" id="形状"></path>
                </g>
                <line x1="0" y1="955.215" x2="2773" y2="955.215" id="Baseline-L" stroke="#27AAE1" stroke-width="0.5"></line>
                <line x1="0" y1="884.755" x2="2773" y2="884.755" id="Capline-L" stroke="#27AAE1" stroke-width="0.5"></line>
                <line x1="254.797" y1="1.13686838e-13" x2="254.797" y2="119.336" id="left-margin-Ultralight-S" stroke="#00AEEF" stroke-width="0.5"></line>
                <line x1="338.625" y1="1.13686838e-13" x2="338.625" y2="119.336" id="right-margin-Ultralight-S" stroke="#00AEEF" stroke-width="0.5"></line>
                <line x1="1142.73" y1="1.13686838e-13" x2="1142.73" y2="119.336" id="left-margin-Regular-S" stroke="#00AEEF" stroke-width="0.5"></line>
                <line x1="1230.96" y1="1.13686838e-13" x2="1230.96" y2="119.336" id="right-margin-Regular-S" stroke="#00AEEF" stroke-width="0.5"></line>
                <line x1="2622.99" y1="1.13686838e-13" x2="2622.99" y2="119.336" id="left-margin-Black-S" stroke="#00AEEF" stroke-width="0.5"></line>
                <line x1="2717.81" y1="1.13686838e-13" x2="2717.81" y2="119.336" id="right-margin-Black-S" stroke="#00AEEF" stroke-width="0.5"></line>
            </g>
            <g id="Symbols" transform="translate(521, 623)" fill="#000000" fill-rule="nonzero">
                <g id="Black-S" transform="translate(2375, 0)">
                    <path d="M42.3380475,46.9436927 C42.6479014,45.9577685 42.6760831,45.0070642 42.4225925,44.0915796 C42.1690442,43.1760951 41.6690435,42.4296137 40.9225904,41.8521356 C40.1760796,41.2746575 39.2817089,40.9859184 38.2394784,40.9859184 L32.4930183,40.9859184 L43.4789283,22.140892 C43.9014511,21.4084582 43.9929766,20.626757 43.7535047,19.7957885 C43.5140905,18.96482 43.0422714,18.3380745 42.3380475,17.915552 C41.6056709,17.5493352 40.8662271,17.4859337 40.1197163,17.7253477 C39.3732632,17.9648194 38.7465172,18.4366669 38.2394784,19.1408902 L37.3521459,20.4084576 L36.7183617,19.1408902 C36.2957812,18.3521509 35.6901498,17.8451124 34.9014675,17.6197748 C34.1127275,17.3943795 33.3521403,17.4929719 32.6197059,17.915552 C31.8591765,18.3943801 31.373281,19.0281637 31.1620196,19.8169031 C30.9507582,20.6056424 31.0704653,21.3803054 31.5211409,22.140892 L34.014135,26.4084611 L25.6056775,40.9859184 L19.0563434,40.9859184 C18.1830874,40.9859184 17.4577489,41.2676193 16.880328,41.831021 C16.3028494,42.3943651 16.0141101,43.1126648 16.0141101,43.9859201 C16.0141101,44.8310227 16.3028494,45.5352461 16.880328,46.0985901 C17.4577489,46.6619918 18.1830874,46.9436927 19.0563434,46.9436927 L42.3380475,46.9436927 Z M21.0000118,54.9718213 C21.7042357,55.3943437 22.4507176,55.4858979 23.2394576,55.2464839 C24.0281976,55.0070699 24.633829,54.5352513 25.0563518,53.8310279 L27.2957976,49.9859236 C27.0422493,49.4507323 26.6126594,49.0000283 26.007028,48.6338114 C25.4013967,48.2675945 24.6901346,48.0281516 23.8732418,47.9154828 C23.056349,47.802814 22.2253798,47.8591484 21.3803342,48.084486 L19.9014467,50.9154845 C19.5070767,51.6760711 19.401446,52.4507341 19.5845546,53.2394734 C19.7676055,54.0282128 20.2394246,54.6056621 21.0000118,54.9718213 Z M53.9577417,54.9718213 C54.6901761,54.5774516 55.1479476,53.9929641 55.3310562,53.2183588 C55.5141071,52.4436959 55.3943711,51.6760711 54.9718484,50.9154845 L52.7324025,46.9436927 L55.7324067,46.9436927 C56.6056628,46.9436927 57.3662211,46.6619918 58.0140817,46.0985901 C58.662,45.5352461 58.9859591,44.8310227 58.9859591,43.9859201 C58.9859591,43.1126648 58.6761052,42.3943651 58.0563974,41.831021 C57.436632,41.2676193 56.6619684,40.9859184 55.7324067,40.9859184 L49.3521625,40.9859184 L41.9578116,28.1408954 C41.1127084,28.6197234 40.4788953,29.4295774 40.0563725,30.5704572 C39.6338497,31.7112794 39.4577793,32.9436558 39.5281613,34.2675864 C39.598601,35.5915747 39.9295984,36.7465021 40.5211534,37.7323686 L49.8591725,53.8310279 C50.2816953,54.5915568 50.8802885,55.0844901 51.6549521,55.3098277 C52.4296157,55.535223 53.1972122,55.422535 53.9577417,54.9718213 Z M16.4788909,75 C11.1267432,75 7.04222159,73.5915505 4.22532603,70.7746514 C1.40844201,67.9577524 0,63.8732513 0,58.5211483 L0,16.4788949 C0,11.1268092 1.40844201,7.0422909 4.22532603,4.22533992 C7.04222159,1.40844664 11.1267432,0 16.4788909,0 L58.5211783,0 C63.8732683,0 67.9577611,1.40844664 70.7746567,4.22533992 C73.5915522,7.0422909 75,11.1268092 75,16.4788949 L75,58.5211483 C75,63.8732513 73.5915522,67.9577524 70.7746567,70.7746514 C67.9577611,73.5915505 63.8732683,75 58.5211783,75 L16.4788909,75 Z M58.5211783,62.7464883 C60.0986583,62.7464883 61.1338507,62.683107 61.6267555,62.5563445 C62.1197179,62.429582 62.4296007,62.1197226 62.5564037,61.6267663 C62.683149,61.1338099 62.7465216,60.098604 62.7465216,58.5211483 L62.7465216,16.4788949 C62.7465216,14.9014162 62.683149,13.8661958 62.5564037,13.3732337 C62.4296007,12.8802717 62.1197179,12.570418 61.6267555,12.4436728 C61.1338507,12.3169276 60.0986583,12.253555 58.5211783,12.253555 L16.4788909,12.253555 C14.901411,12.253555 13.8661897,12.3169276 13.3732272,12.4436728 C12.8802647,12.570418 12.5704109,12.8802717 12.4436656,13.3732337 C12.3169202,13.8661958 12.2535476,14.9014162 12.2535476,16.4788949 L12.2535476,58.5211483 C12.2535476,60.098604 12.3169202,61.1338099 12.4436656,61.6267663 C12.5704109,62.1197226 12.8802647,62.429582 13.3732272,62.5563445 C13.8661897,62.683107 14.901411,62.7464883 16.4788909,62.7464883 L58.5211783,62.7464883 Z" id="形状"></path>
                </g>
                <g id="Regular-S" transform="translate(891, 0)">
                    <path d="M43.2316455,47.7192089 C43.5278654,46.7713412 43.5574692,45.8160725 43.3204569,44.8534029 C43.0835053,43.8906727 42.5947697,43.0983159 41.8542504,42.4763327 C41.113731,41.8542889 40.1658637,41.5432669 39.0106486,41.5432669 L31.8572386,41.5432669 L44.431327,19.8163193 C44.8756265,19.0461958 45.0089042,18.2464381 44.8311601,17.4170463 C44.6534161,16.5876544 44.1646805,15.9508087 43.3649536,15.506509 C42.5651659,15.1214168 41.7579774,15.0473467 40.9433878,15.2842984 C40.128859,15.5213109 39.4994145,16.0248788 39.0550543,16.7950024 L37.9887719,18.7499454 L36.7890905,16.7950024 C36.3151872,16.0248788 35.6931436,15.5213109 34.9229598,15.2842984 C34.1528366,15.0473467 33.3827134,15.1214168 32.6125902,15.506509 C31.8128026,15.9508087 31.3240368,16.5876544 31.1462927,17.4170463 C30.9686093,18.2464381 31.1019174,19.0461958 31.5462169,19.8163193 L34.5231266,24.9703841 L24.8370457,41.5432669 L17.2838026,41.5432669 C16.4248073,41.5432669 15.684288,41.8394566 15.0622444,42.431836 C14.4402008,43.0242761 14.129179,43.7796281 14.129179,44.697892 C14.129179,45.5272838 14.4476018,46.2381694 15.0844472,46.8305488 C15.7212927,47.4229889 16.4544111,47.7192089 17.2838026,47.7192089 L43.2316455,47.7192089 Z M19.5053607,56.738754 C20.2754839,57.2126575 21.0752412,57.3237324 21.9046326,57.0719787 C22.734024,56.8202251 23.3708695,56.3092561 23.815169,55.5390719 L26.1700352,51.318164 C25.9626873,50.9034681 25.5627935,50.5035741 24.9703537,50.1184819 C24.3779746,49.7333898 23.6522875,49.4668039 22.7932923,49.3187243 C21.9342364,49.1705839 21.0307748,49.21502 20.0829076,49.4520324 L18.5722954,52.517755 C18.1575997,53.3471468 18.0242916,54.1543055 18.1723712,54.9392309 C18.3205115,55.724217 18.7648413,56.324058 19.5053607,56.738754 Z M56.4721831,56.738754 C57.2423063,56.2944542 57.7162399,55.6724104 57.893984,54.8726224 C58.0716674,54.0728343 57.9383593,53.2878786 57.4940598,52.517755 L54.6504581,47.7192089 L58.6493356,47.7192089 C59.5379346,47.7192089 60.2932559,47.4229889 60.9152994,46.8305488 C61.537343,46.2381694 61.8483648,45.5272838 61.8483648,44.697892 C61.8483648,43.7500243 61.5447439,42.9872713 60.9375023,42.4096332 C60.3302606,41.8320557 59.5675384,41.5432669 58.6493356,41.5432669 L51.2293095,41.5432669 L42.9650294,27.2807547 C42.135638,27.843591 41.5210257,28.7322207 41.1211926,29.946644 C40.7212988,31.1611279 40.5805898,32.4718545 40.6990656,33.8788239 C40.8175414,35.2857932 41.1878011,36.5076477 41.8098447,37.5443875 L52.2511862,55.5390719 C52.6954857,56.2795917 53.3027274,56.7757587 54.0729112,57.027573 C54.8430344,57.2793267 55.6427917,57.1830537 56.4721831,56.738754 Z M16.4840453,75 C11.1226655,75 7.03497663,73.5930094 4.2209787,70.7790283 C1.4069929,67.9650472 0,63.8773655 0,58.5159831 L0,16.4839805 C0,11.1225981 1.4069929,7.03490725 4.2209787,4.22090795 C7.03497663,1.40696932 11.1226655,0 16.4840453,0 L58.5160275,0 C63.8774073,0 67.9650658,1.40696932 70.7790031,4.22090795 C73.593001,7.03490725 75,11.1225981 75,16.4839805 L75,58.5159831 C75,63.8773655 73.593001,67.9650472 70.7790031,70.7790283 C67.9650658,73.5930094 63.8774073,75 58.5160275,75 L16.4840453,75 Z M58.5160275,68.3353041 C61.2411534,68.3353041 63.2923988,68.0687182 64.6697637,67.5355464 C66.0471285,67.0023685 67.0023967,66.0470938 67.5355682,64.6697222 C68.0687398,63.2923567 68.3353255,61.2411104 68.3353255,58.5159831 L68.3353255,16.4839805 C68.3353255,13.7588532 68.0687398,11.7076069 67.5355682,10.3302414 C67.0023967,8.95287584 66.0471285,7.99760719 64.6697637,7.4644354 C63.2923988,6.93126361 61.2411534,6.66467771 58.5160275,6.66467771 L16.4840453,6.66467771 C13.7589194,6.66467771 11.707674,6.93126361 10.3303091,7.4644354 C8.95294429,7.99760719 7.9976761,8.95287584 7.46450457,10.3302414 C6.93127238,11.7076069 6.66465628,13.7588532 6.66465628,16.4839805 L6.66465628,58.5159831 C6.66465628,61.2411104 6.93127238,63.2923567 7.46450457,64.6697222 C7.9976761,66.0470938 8.95294429,67.0023685 10.3303091,67.5355464 C11.707674,68.0687182 13.7589194,68.3353041 16.4840453,68.3353041 L58.5160275,68.3353041 Z" id="形状"></path>
                </g>
                <g id="Ultralight-S">
                    <path d="M42.3105762,48 C42.5811025,47.0625553 42.5886137,46.117555 42.3331098,45.1649992 C42.0776059,44.2124435 41.5815897,43.4262025 40.8450613,42.8062764 C40.1085328,42.1864122 39.1690788,41.8764801 38.0266993,41.8764801 L30.7667253,41.8764801 L43.5280369,19.6503641 C43.9790167,18.8641541 44.1067994,18.0703576 43.9113851,17.2689746 C43.7159708,16.4676535 43.1973903,15.8401719 42.3556434,15.3865296 C41.6341374,14.9631715 40.8825865,14.8951406 40.1009908,15.1824371 C39.3193952,15.4697335 38.7181606,15.9460114 38.2972872,16.6112708 L36.9895998,18.7431415 L35.8171139,16.6112708 C35.4864365,15.9157892 34.9002243,15.4319558 34.0584775,15.1597704 C33.2167307,14.8875851 32.4050594,14.9631715 31.6234638,15.3865296 C30.8418681,15.8401719 30.3683855,16.4676535 30.203016,17.2689746 C30.0377081,18.0703576 30.1805132,18.8641541 30.6314314,19.6503641 L33.5173941,24.8213282 L23.7772468,41.8764801 L16.0212567,41.8764801 C15.2395994,41.8764801 14.5406577,42.1788567 13.9244316,42.7836098 C13.3081439,43.3884248 13,44.1293015 13,45.0062399 C13,45.822734 13.3081439,46.5258021 13.9244316,47.1154441 C14.5406577,47.705148 15.2395994,48 16.0212567,48 L42.3105762,48 Z M18.4580026,57.6092064 C19.2099521,58.0372348 19.9694167,58.113655 20.7363966,57.838467 C21.5033764,57.5633417 22.0974147,57.0436153 22.5185113,56.2792878 L25,52.1060107 C24.7894517,51.6779823 24.405931,51.2729018 23.8494378,50.8907694 C23.2930063,50.5085743 22.5936939,50.2410565 21.7515007,50.0882161 C20.9093074,49.935313 20.0069619,49.9811777 19.0444641,50.2258101 L17.4654441,53.2525019 C17.0443475,54.047385 16.9089818,54.8575772 17.059347,55.6830785 C17.2097123,56.5085797 17.6759308,57.1506224 18.4580026,57.6092064 Z M56.3338897,56.6170247 C57.1388952,56.1676153 57.6420316,55.5309315 57.8432989,54.7069734 C58.0445661,53.8830152 57.9129878,53.0965181 57.448564,52.347482 L54.4297456,47.3139923 L58.7024893,47.3139923 C59.6004557,47.3139923 60.3745166,47.0218517 61.0246719,46.4375703 C61.6748906,45.8533504 62,45.1567474 62,44.3477614 C62,43.4788868 61.6748906,42.7448229 61.0246719,42.1455694 C60.3745166,41.5463773 59.6004557,41.2467813 58.7024893,41.2467813 L50.8999596,41.2467813 L42.2614479,27 C41.4254343,27.5693092 40.8139281,28.4606726 40.4269294,29.6740903 C40.0398673,30.8875693 39.9159934,32.1834257 40.0553079,33.5616596 C40.1946858,34.939832 40.5894841,36.1682525 41.2397028,37.246921 L52.15398,55.3137129 C52.5874592,56.062749 53.1989654,56.5720776 53.9884986,56.8416987 C54.7780318,57.1113812 55.5598288,57.0364898 56.3338897,56.6170247 Z M13.909071,75 C9.42425985,75 5.98485994,73.8030305 3.59087128,71.4090915 C1.19695709,69.0151525 0,65.5757588 0,61.0909104 L0,13.9090896 C0,9.4242164 1.19695709,5.9848165 3.59087128,3.5908899 C5.98485994,1.1969633 9.42425985,0 13.909071,0 L61.0909104,0 C65.545498,0 68.9773265,1.21967749 71.3863959,3.65903246 C73.7954653,6.0984495 75,9.51513522 75,13.9090896 L75,61.0909104 C75,65.4848462 73.7954653,68.9015133 71.3863959,71.3409117 C68.9773265,73.7803039 65.545498,75 61.0909104,75 L13.909071,75 Z M60.9706744,73 C63.4730523,73 65.6286734,72.5176221 67.4375379,71.5528663 C69.2464642,70.5881082 70.6257727,69.2088069 71.5754636,67.4149623 C72.5251545,65.6211217 73,63.473035 73,60.9707024 L73,14.0293161 C73,11.5269403 72.5251545,9.37885363 71.5754636,7.58505618 C70.6257727,5.79119697 69.2464642,4.41188948 67.4375379,3.44713369 C65.6286734,2.4823779 63.4730523,2 60.9706744,2 L14.0292329,2 C11.4967856,2 9.33363162,2.47484508 7.53977102,3.42453525 C5.74591041,4.37422541 4.37413465,5.74596922 3.42444375,7.53976668 C2.47481458,9.33362588 2,11.496809 2,14.0293161 L2,60.9707024 C2,63.5031848 2.47481458,65.6663463 3.42444375,67.460187 C4.37413465,69.2540302 5.74591041,70.6257925 7.53977102,71.575474 C9.33363162,72.525158 11.4967856,73 14.0292329,73 L60.9706744,73 Z" id="形状"></path>
                </g>
            </g>
        </g>
    </g>
</svg>