<?xml version="1.0" encoding="UTF-8"?>
<svg height="600" width="800" xmlns="http://www.w3.org/2000/svg" xmlns:xlink="http://www.w3.org/1999/xlink">
    <style>
        
    </style>
    <g id="Notes" font-family="'LucidaGrande', 'Lucida Grande', sans-serif" font-size="13">
        <rect fill="white" height="600.0" width="800.0" x="0.0" y="0.0" />
        <g font-size="13">
            <text x="18.0" y="176.0">Small</text>
            <text x="18.0" y="376.0">Medium</text>
            <text x="18.0" y="576.0">Large</text>
        </g>
        <g font-size="9">
            <text x="250.0" y="30.0">Ultralight</text>
            <text x="450.0" y="30.0">Regular</text>
            <text x="650.0" y="30.0">Black</text>
            <text id="template-version" fill="#505050" text-anchor="end" x="785.0" y="575.0">Template v.3.0</text>
            <a href="https://github.com/swhitty/SwiftDraw">
                <text fill="#505050" text-anchor="end" x="785.0" y="590.0">https://github.com/swhitty/SwiftDraw</text>
            </a>
        </g>
    </g>
    <g id="Guides" stroke="rgb(39, 170, 225)" stroke-width="0.5">
        <path id="Capline-S" d="M18,76 l800,0" />
        <path id="H-reference" d="M85,145.8 L87.7,145.8 L113.4,79.3 L114.1,79.3 L114.1,76 L112.1,76 L85,145.8 Z M95.7,121.5 L131,121.5 L130.3,119.3 L96.5,119.3 L95.7,121.5 Z M139.1,145.8 L141.8,145.8 L114.6,76 L113.5,76 L113.5,79.3 L139.1,145.8 Z" stroke="none" />
        <path id="Baseline-S" d="M18,146 l800,0" />
        <path id="left-margin-Ultralight-S" d="M211,56 l0,110" />
        <path id="right-margin-Ultralight-S" d="M319,56 l0,110" />
        <path id="left-margin-Regular-S" d="M412.2,56 l0,110" />
        <path id="right-margin-Regular-S" d="M517.8,56 l0,110" />
        <path id="left-margin-Black-S" d="M611,56 l0,110" />
        <path id="right-margin-Black-S" d="M719,56 l0,110" />
        <path id="Capline-M" d="M18,276 l800,0" />
        <path id="Baseline-M" d="M18,346 l800,0" />
        <path id="Capline-L" d="M18,476 l800,0" />
        <path id="Baseline-L" d="M18,546 l800,0" />
    </g>
    <g id="Symbols">
        <g id="Ultralight-S">
            <path class="monochrome-0 multicolor-0:tintColor hierarchical-0:secondary" d="M233.9,143 L296.1,143 C304,143 309,138.3 309,130.6 L309,91.4 C309,83.7 304,79 296.1,79 L233.9,79 C226,79 221,83.7 221,91.4 L221,130.6 C221,138.3 226,143 233.9,143 Z M234,140.9 C227.4,140.9 223.2,137 223.2,130.5 L223.2,91.5 C223.2,85.1 227.4,81.1 234,81.1 L296,81.1 C302.7,81.1 306.8,85.1 306.8,91.5 L306.8,130.5 C306.8,137 302.7,140.9 296,140.9 Z" />
            <path class="monochrome-1 multicolor-1:tintColor hierarchical-1:primary" d="M233.5,97.6 L246.8,97.6 C248.8,97.6 250.2,96.3 250.2,94.4 L250.2,91 C250.2,89 248.8,87.8 246.8,87.8 L233.5,87.8 C231.5,87.8 230.2,89 230.2,91 L230.2,94.4 C230.2,96.3 231.5,97.6 233.5,97.6 Z M258.3,97.6 L271.6,97.6 C273.6,97.6 275,96.3 275,94.4 L275,91 C275,89 273.6,87.8 271.6,87.8 L258.3,87.8 C256.3,87.8 255,89 255,91 L255,94.4 C255,96.3 256.3,97.6 258.3,97.6 Z M283.2,97.6 L296.4,97.6 C298.5,97.6 299.8,96.3 299.8,94.4 L299.8,91 C299.8,89 298.5,87.8 296.4,87.8 L283.2,87.8 C281.1,87.8 279.8,89 279.8,91 L279.8,94.4 C279.8,96.3 281.1,97.6 283.2,97.6 Z" />
        </g>
        <g id="Regular-S">
            <path class="monochrome-0 multicolor-0:tintColor hierarchical-0:secondary" d="M438.1,146 L493,146 C502.4,146 507.8,140 507.8,129.4 L507.8,92.6 C507.8,82 502.4,76 493,76 L438.1,76 C427.9,76 422.2,82 422.2,92.6 L422.2,129.4 C422.2,140 427.9,146 438.1,146 Z M438.1,139 C432.2,139 428.9,135.6 428.9,129.4 L428.9,92.6 C428.9,86.4 432.2,83 438.1,83 L491.9,83 C497.8,83 501.1,86.4 501.1,92.6 L501.1,129.4 C501.1,135.6 497.8,139 491.9,139 Z" />
            <path class="monochrome-1 multicolor-1:tintColor hierarchical-1:primary" d="M437.4,99.3 L449.4,99.3 C451.1,99.3 452.3,98 452.3,96 L452.3,92 C452.3,90.1 451.1,88.8 449.4,88.8 L437.4,88.8 C435.7,88.8 434.5,90.1 434.5,92 L434.5,96 C434.5,98 435.7,99.3 437.4,99.3 Z M459,99.3 L471,99.3 C472.7,99.3 473.9,98 473.9,96 L473.9,92 C473.9,90.1 472.7,88.8 471,88.8 L459,88.8 C457.3,88.8 456.1,90.1 456.1,92 L456.1,96 C456.1,98 457.3,99.3 459,99.3 Z M480.7,99.3 L492.6,99.3 C494.4,99.3 495.6,98 495.6,96 L495.6,92 C495.6,90.1 494.4,88.8 492.6,88.8 L480.7,88.8 C479,88.8 477.7,90.1 477.7,92 L477.7,96 C477.7,98 479,99.3 480.7,99.3 Z" />
        </g>
        <g id="Black-S">
            <path class="monochrome-0 multicolor-0:tintColor hierarchical-0:secondary" d="M638.3,144 L691.7,144 C702.4,144 709,138 709,128.3 L709,93.7 C709,84 702.4,78 691.7,78 L638.3,78 C627.6,78 621,84 621,93.7 L621,128.3 C621,138 627.6,144 638.3,144 Z M640.4,131.7 C636.7,131.7 634.5,129.7 634.5,126.3 L634.5,95.7 C634.5,92.3 636.7,90.3 640.4,90.3 L689.6,90.3 C693.3,90.3 695.5,92.3 695.5,95.7 L695.5,126.3 C695.5,129.7 693.3,131.7 689.6,131.7 Z" />
            <path class="monochrome-1 multicolor-1:tintColor hierarchical-1:primary" d="M640.8,102.7 L651.2,102.7 C652.8,102.7 654,101.6 654,99.9 L654,96.3 C654,94.7 652.8,93.5 651.2,93.5 L640.8,93.5 C639.2,93.5 638.1,94.7 638.1,96.3 L638.1,99.9 C638.1,101.6 639.2,102.7 640.8,102.7 Z M659.8,102.7 L670.2,102.7 C671.8,102.7 673,101.6 673,99.9 L673,96.3 C673,94.7 671.8,93.5 670.2,93.5 L659.8,93.5 C658.2,93.5 657.1,94.7 657.1,96.3 L657.1,99.9 C657.1,101.6 658.2,102.7 659.8,102.7 Z M678.8,102.7 L689.1,102.7 C690.8,102.7 691.9,101.6 691.9,99.9 L691.9,96.3 C691.9,94.7 690.8,93.5 689.1,93.5 L678.8,93.5 C677.1,93.5 676,94.7 676,96.3 L676,99.9 C676,101.6 677.1,102.7 678.8,102.7 Z" />
        </g>
    </g>
</svg>